<svg width="281" height="281" viewBox="0 0 281 281" fill="none" xmlns="http://www.w3.org/2000/svg">
<g clip-path="url(#clip0_1_2)">
<path d="M140.27 88.09L88.06 140.3L140.27 192.51L192.48 140.3L140.27 88.09ZM140.27 160.11C129.33 160.11 120.46 151.24 120.46 140.3C120.46 129.36 129.33 120.49 140.27 120.49C151.21 120.49 160.08 129.36 160.08 140.3C160.08 151.24 151.21 160.11 140.27 160.11Z" fill="#5284D0"/>
<path d="M269.35 128.28C265.71 128.06 262.39 129.45 260.05 131.81L230.97 102.73V61.66C237.81 61.66 243.32 55.96 243 49.05C242.72 42.92 237.67 37.87 231.54 37.59C224.63 37.27 218.94 42.77 218.93 49.6H177.85L148.8 20.55C151.15 18.2 152.53 14.89 152.3 11.25C151.92 5.21 146.92 0.289999 140.87 0.00999928C133.95 -0.320001 128.24 5.19 128.24 12.04C128.24 15.36 129.59 18.37 131.77 20.55L102.72 49.6H61.64C61.64 49.6 61.64 49.54 61.64 49.5C61.64 42.66 55.94 37.15 49.03 37.47C42.9 37.75 37.85 42.8 37.57 48.93C37.25 55.84 42.75 61.54 49.59 61.54V102.72L20.55 131.76C18.2 129.42 14.89 128.04 11.26 128.27C5.22001 128.66 0.310009 133.65 0.020009 139.7C-0.309991 146.62 5.20001 152.33 12.05 152.33C15.37 152.33 18.37 150.99 20.55 148.81L49.59 177.85V218.93C42.75 218.93 37.25 224.63 37.57 231.54C37.85 237.67 42.9 242.72 49.03 243C55.94 243.32 61.64 237.81 61.64 230.97H102.72L131.79 260.04C129.43 262.39 128.04 265.7 128.26 269.34C128.63 275.39 133.64 280.32 139.69 280.6C146.61 280.93 152.32 275.42 152.32 268.57C152.32 265.23 150.96 262.21 148.77 260.03L177.84 230.96H218.92C218.92 230.96 218.92 230.97 218.92 230.98C218.92 237.82 224.62 243.33 231.53 243.01C237.66 242.73 242.71 237.68 242.99 231.55C243.31 224.64 237.8 218.94 230.96 218.94V177.84L260.04 148.76C262.22 150.96 265.24 152.32 268.58 152.32C275.42 152.32 280.93 146.61 280.61 139.69C280.32 133.63 275.4 128.63 269.34 128.26L269.35 128.28ZM13.15 145.83C9.18001 146.58 5.76001 143.16 6.51001 139.19C6.93001 136.97 8.72001 135.18 10.94 134.76C14.91 134.01 18.33 137.43 17.58 141.4C17.16 143.62 15.37 145.41 13.15 145.83ZM229.86 44.08C233.83 43.33 237.25 46.75 236.5 50.72C236.08 52.94 234.29 54.73 232.07 55.15C228.1 55.9 224.68 52.48 225.43 48.51C225.85 46.29 227.64 44.5 229.86 44.08ZM139.17 6.51C143.14 5.76 146.56 9.18 145.81 13.15C145.39 15.37 143.6 17.16 141.38 17.58C137.41 18.33 133.99 14.91 134.74 10.94C135.16 8.72 136.95 6.93 139.17 6.51ZM147.82 46.61L162.75 61.54L140.27 84.02L117.79 61.54L132.72 46.61C136.89 42.44 143.65 42.44 147.82 46.61ZM44.05 50.61C43.3 46.64 46.72 43.22 50.69 43.97C52.91 44.39 54.7 46.18 55.12 48.4C55.87 52.37 52.45 55.79 48.48 55.04C46.26 54.62 44.47 52.83 44.05 50.61ZM50.69 236.52C46.72 237.27 43.3 233.85 44.05 229.88C44.47 227.66 46.26 225.87 48.48 225.45C52.45 224.7 55.87 228.12 55.12 232.09C54.7 234.31 52.91 236.1 50.69 236.52ZM46.58 132.74L61.51 117.81L83.99 140.29L61.51 162.77L46.58 147.84C42.41 143.67 42.41 136.91 46.58 132.74ZM141.37 274.13C137.4 274.88 133.98 271.46 134.73 267.49C135.15 265.27 136.94 263.48 139.16 263.06C143.13 262.31 146.55 265.73 145.8 269.7C145.38 271.92 143.59 273.71 141.37 274.13ZM132.72 233.98L117.79 219.05L140.27 196.57L162.75 219.05L147.82 233.98C143.65 238.15 136.89 238.15 132.72 233.98ZM206.91 206.96L178.42 206.88L140.25 168.71L102.06 206.9L73.57 206.98V178.49L111.8 140.26L72.52 100.98L72.48 72.49L100.97 72.53L140.25 111.81L178.46 73.6L206.93 73.66L206.81 102.15L168.71 140.25L206.92 178.46V206.95L206.91 206.96ZM236.49 229.89C237.24 233.86 233.82 237.28 229.85 236.53C227.63 236.11 225.84 234.32 225.42 232.1C224.67 228.13 228.09 224.71 232.06 225.46C234.28 225.88 236.07 227.67 236.49 229.89ZM219.02 162.77L196.54 140.29L219.02 117.81L233.95 132.74C238.12 136.91 238.12 143.67 233.95 147.84L219.02 162.77ZM269.68 145.82C265.71 146.57 262.29 143.15 263.04 139.18C263.46 136.96 265.25 135.17 267.47 134.75C271.44 134 274.86 137.42 274.11 141.39C273.69 143.61 271.9 145.4 269.68 145.82Z" fill="url(#paint0_radial_1_2)"/>
</g>
<defs>
<radialGradient id="paint0_radial_1_2" cx="0" cy="0" r="1" gradientUnits="userSpaceOnUse" gradientTransform="translate(139.872 139.88) scale(139.74 139.74)">
<stop offset="0.21" stop-color="#559CD0"/>
<stop offset="0.3" stop-color="#4063A8"/>
<stop offset="0.39" stop-color="#2E538A"/>
<stop offset="0.48" stop-color="#1F4A71"/>
<stop offset="0.58" stop-color="#13365E"/>
<stop offset="0.69" stop-color="#0B3451"/>
<stop offset="0.82" stop-color="#062949"/>
<stop offset="1" stop-color="#052747"/>
</radialGradient>
<clipPath id="clip0_1_2">
<rect width="280.63" height="280.64" fill="white"/>
</clipPath>
</defs>
</svg>
